<svg xmlns="http://www.w3.org/2000/svg" viewBox="0 0 1400 900" preserveAspectRatio="xMidYMid slice">
  <defs>
    <linearGradient id="gymwall" x1="0" y1="0" x2="0" y2="1">
      <stop offset="0" stop-color="#20364a"/><stop offset="1" stop-color="#31536f"/>
    </linearGradient>
    <linearGradient id="gymfloor" x1="0" y1="0" x2="0" y2="1">
      <stop offset="0" stop-color="#cf8f46"/><stop offset="1" stop-color="#a86527"/>
    </linearGradient>
  </defs>
  <rect width="1400" height="620" fill="url(#gymwall)"/>
  <rect y="620" width="1400" height="280" fill="url(#gymfloor)"/>
  <line x1="0" y1="760" x2="1400" y2="760" stroke="#f7f2e9" stroke-width="10"/>
  <rect x="688" y="230" width="16" height="470" rx="8" fill="#1a2c3d"/>
  <rect x="200" y="250" width="1000" height="12" fill="#f7f2e9"/>
  <rect x="200" y="360" width="1000" height="9" fill="#f7f2e9"/>
  <g stroke="#d8e2ea" stroke-width="2.5" opacity="0.8">
    <path d="M205 262 H1200 M205 288 H1200 M205 314 H1200 M205 340 H1200"/>
    <path d="M250 255 V366 M320 255 V366 M390 255 V366 M460 255 V366 M530 255 V366 M600 255 V366 M670 255 V366 M740 255 V366 M810 255 V366 M880 255 V366 M950 255 V366 M1020 255 V366 M1090 255 V366 M1160 255 V366"/>
  </g>
  <g fill="#101c29">
    <g transform="translate(430 320)">
      <circle cx="0" cy="-150" r="34"/>
      <path d="M-20 -116 q20 24 40 0 l36 -96 q10 -26 34 -16 q22 10 12 36 l-42 108 q-14 34 -46 40 l-6 110 26 130 q6 28 -20 32 q-24 4 -30 -22 l-26 -122 -22 122 q-6 26 -30 22 q-26 -4 -20 -32 l26 -130 -4 -112 q-30 -10 -40 -44 l-30 -100 q-8 -26 14 -34 q24 -8 32 18 l28 90 z"/>
    </g>
    <g transform="translate(950 340)">
      <circle cx="0" cy="-170" r="34"/>
      <path d="M-22 -136 q22 26 44 0 l14 -60 q6 -26 30 -20 q24 6 18 32 l-16 72 q-8 34 -40 44 l-2 108 30 128 q6 28 -20 32 q-24 4 -30 -22 l-30 -120 -24 120 q-6 26 -30 22 q-26 -4 -20 -32 l28 -128 -2 -104 q-32 -12 -38 -48 l-12 -70 q-4 -26 20 -30 q24 -4 28 22 l10 54 z"/>
    </g>
  </g>
  <g transform="translate(690 150)">
    <circle r="40" fill="#f2d43d"/>
    <path d="M-40 0 A40 40 0 0 1 40 0" fill="none" stroke="#1d5fa8" stroke-width="7"/>
    <path d="M-28 -28 Q0 -6 28 -28" fill="none" stroke="#1d5fa8" stroke-width="6"/>
    <path d="M-28 29 Q0 5 28 29" fill="none" stroke="#d23b2f" stroke-width="6"/>
  </g>
</svg>
